<svg xmlns="http://www.w3.org/2000/svg" viewBox="0 0 50 50"><title>icons8 sun icons8 moon man</title><g fill="#0c0c0c" class="nc-icon-wrapper"><g class="nc-int-icon nc-int-icon-slide-up js-nc-int-icon"><g class="nc-int-icon-a"><path d="M24.906 3.969c-.043.008-.086.02-.125.031A1.002 1.002 0 0 0 24 5v6c-.004.36.184.695.496.879.313.18.695.18 1.008 0 .312-.184.5-.52.496-.879V5a1 1 0 0 0-1.094-1.031zm-14.25 5.875a.994.994 0 0 0-.781.703c-.105.367.004.758.281 1.015l4.25 4.25c.242.297.63.434 1.004.348.371-.086.664-.379.75-.75a1.004 1.004 0 0 0-.348-1.004l-4.25-4.25a1.004 1.004 0 0 0-.812-.312h-.094zm28.375 0a1.005 1.005 0 0 0-.593.312l-4.25 4.25a1.004 1.004 0 0 0-.348 1.004c.086.371.379.664.75.75.375.086.762-.05 1.004-.348l4.25-4.25a1 1 0 0 0-.813-1.719zM25 15c-5.516 0-10 4.484-10 10s4.484 10 10 10 10-4.484 10-10-4.484-10-10-10zM4.719 24c-.551.078-.938.59-.86 1.14.079.551.59.938 1.141.86h6c.36.004.695-.184.879-.496a1.01 1.01 0 0 0 0-1.008c-.184-.312-.52-.5-.879-.496H4.719zm34 0c-.551.078-.938.59-.86 1.14.078.551.59.938 1.141.86h6c.36.004.695-.184.879-.496a1.01 1.01 0 0 0 0-1.008c-.184-.312-.52-.5-.879-.496H38.719zM15 33.875a1.005 1.005 0 0 0-.594.313l-4.25 4.25a1.004 1.004 0 0 0-.347 1.003c.086.371.379.664.75.75.375.086.761-.05 1.004-.347l4.25-4.25a1.002 1.002 0 0 0-.719-1.719H15zm19.688 0a.994.994 0 0 0-.782.703c-.105.367.004.758.282 1.016l4.25 4.25c.242.297.628.433 1.003.347.371-.086.664-.379.75-.75a1.004 1.004 0 0 0-.347-1.004l-4.25-4.25a1 1 0 0 0-.719-.312h-.187zm-9.782 4.094c-.043.008-.086.02-.125.031A1.002 1.002 0 0 0 24 39v6c-.004.36.184.695.496.879.313.18.695.18 1.008 0 .312-.184.5-.52.496-.879v-6a1 1 0 0 0-1.094-1.031z"></path></g><g class="nc-int-icon-b"><path d="M31 2C22 2 13.512 5.824 9.078 13.5c-3.137 5.438-3.953 12.016-2.234 18.043 1.656 5.812 5.433 10.55 10.644 13.348C21.426 47 26 48 30 48c4.586 0 8.57-1.328 12.574-4.078.38-.262.543-.73.41-1.168a1.052 1.052 0 0 0-.996-.738c-3.636-.02-7.61-1.82-10.812-3.98-2.164.136-7.133.612-9.676-.036-1.71-.438-4.41-1.703-5.516-4.938 3.758 2.75 8.418 2.024 11.418 1.942-.988-.957-1.738-1.863-2.136-2.598l2.27-1.515a.99.99 0 0 0 .444-.91 1.003 1.003 0 0 0-.585-.833c-.016-.007-.86-.406-1.836-1.34.296-.32.55-.714.734-1.163.45-1.086.687-2.575.707-4.633a.99.99 0 0 0-.29-.715A.996.996 0 0 0 26 21h-3v2h-.191c-.004 0 0 0 0 0h-.872c-.214 3.332-1.39 5.059-2.953 5.059-1.527 0-2.754-1.688-2.957-5.059H12a1 1 0 1 1 0-2h11.031C23 12.453 28.761 5.809 31.566 3.926c.368-.246.54-.7.43-1.13-.113-.429-.555-.76-.996-.796z"></path></g></g><style>.nc-int-icon-slide-up{--animation-duration:0.3s;}.nc-int-icon{position:relative;}.nc-int-icon-b{position: absolute;top: calc(50% - 0.5em);left: calc(50% - 0.5em);opacity: 0;}.nc-int-icon-slide-up{overflow:hidden;}.nc-int-icon-slide-up .nc-int-icon-a,.nc-int-icon-slide-up .nc-int-icon-b{transition: opacity var(--animation-duration), transform var(--animation-duration);}.nc-int-icon-slide-up .nc-int-icon-b{transform: translateY(100%);}.nc-int-icon-state-b .nc-int-icon-a{opacity: 0;}.nc-int-icon-state-b .nc-int-icon-b{opacity: 1;}.nc-int-icon-slide-up.nc-int-icon-state-b .nc-int-icon-a{transform: translateY(-100%);}.nc-int-icon-slide-up.nc-int-icon-state-b .nc-int-icon-b{transform: translateY(0%);}</style><script>function initIntIcon(i){if(i.classList.contains("js-nc-int-icon-loaded")) return;i.classList.add("js-nc-int-icon-loaded");i.closest("svg").addEventListener("click",function(n){i.classList.toggle("nc-int-icon-state-b")});};var intIcons=document.getElementsByClassName("js-nc-int-icon");for(var i=0;intIcons.length>i;i++){initIntIcon(intIcons[i]);}</script></g></svg>